<svg height="512" viewBox="0 0 58 58" width="512" xmlns="http://www.w3.org/2000/svg"><g id="018---Gender-Equality-Symbol" fill="none"><path id="Shape" d="m57 0h-10c-.5522847 0-1 .44771525-1 1v2c0 .55228475.4477153 1 1 1h4.17l-7.65 7.65c-5.3050397-4.1726096-12.5745707-4.81600036-18.53-1.64-6.0274816-3.21404869-13.3935878-2.50650949-18.69906841 1.7961082-5.30548063 4.3026178-7.51889908 11.3638436-5.61882523 17.9251212 1.90007385 6.5612775 7.54424729 11.3470311 14.32789364 12.1487706v7.12h-5c-.55228475 0-1 .4477153-1 1v2c0 .5522847.44771525 1 1 1h5v4c0 .5522847.4477153 1 1 1h2c.5522847 0 1-.4477153 1-1v-4h5c.5522847 0 1-.4477153 1-1v-2c0-.5522847-.4477153-1-1-1h-5v-7.12c2.1015162-.2449405 4.1375007-.8862756 6-1.89 7.0948524 3.7893606 15.8746524 2.0854069 21.0369769-4.082785 5.1623244-6.1681918 5.2929648-15.1108581.3130231-21.427215l7.65-7.65v4.17c0 .5522847.4477153 1 1 1h2c.5522847 0 1-.4477153 1-1v-10c0-.55228475-.4477153-1-1-1zm-13.35 32.46c-3.336709 4.7538051-9.4219025 6.7175739-14.908 4.811 1.1658172-1.1145092 2.1683848-2.3880865 2.978-3.783.1735989-.3104903.1691867-.6898281-.0115872-.9961965-.1807738-.3063685-.5106918-.4936404-.8664128-.4918035h-2.368c-1.039 0-.81 1.173-3.474 3.24-.4177455-.3253598-.8151572-.6760172-1.19-1.05-2.524-2.524-.624-2.19-4.66-2.19-.3566867-.0029595-.6879447.1842984-.8693385.491431-.1813937.3071326-.1854563.6876334-.0106615.998569.8080444 1.3986197 1.8114866 2.6748097 2.98 3.79-5.3810782 1.8695011-11.35247647.0178702-14.73182324-4.5680923s-3.37934677-10.8378529 0-15.4238154 9.35074504-6.4375934 14.73182324-4.5680923c-1.1680929 1.1134329-2.1703132 2.3887717-2.976 3.787-.176048.3106632-.1730867.6916256.0077697.9995144.1808563.3078888.5121613.4959796.8692303.4934856 4.045 0 2.137.332 4.659-2.19.3748428-.3739828.7722545-.7246402 1.19-1.05 2.551 1.975 2.474 3.24 3.47 3.24h2.36c.3574466-.0005227.6879388-.1901233.8688122-.4984302s.1851292-.6892995.0111878-1.0015698c-.810089-1.3912423-1.8134148-2.6605505-2.98-3.77 5.3262708-1.8590913 11.2436374-.0690399 14.6463302 4.4306337 3.4026929 4.4996736 3.5132601 10.6808779.2736698 15.2993663z" fill="#26b99a"/><path id="Shape" d="m25 35.24c2.613-2.028 2.448-3.24 3.474-3.24h2.368c.355721-.0018369.685639.185435.8664128.4918035.1807739.3063684.1851861.6857062.0115872.9961965-1.2832083 2.0671585-2.8749328 3.9259689-4.72 5.512z" fill="#26b99a"/><g fill="#ff5364"><path id="Shape" d="m25 14.76c-2.7 2.111-2.445 3.24-3.477 3.24h-2.372c-.3572473.0028541-.6888811-.1850942-.8699824-.4930489-.1811012-.3079547-.1841575-.689132-.0080176-.9999511.9884068-1.6954094 2.2473444-3.2178219 3.727-4.507z"/><path id="Shape" d="m58 1v10c0 .5522847-.4477153 1-1 1h-2c-.5522847 0-1-.4477153-1-1v-4.17l-7.65 7.65c3.9456139 5.0005067 4.7647899 11.7871328 2.1223284 17.5828496s-8.3031366 9.6279616-14.6657261 9.928613c-6.3625894.3006514-12.3594053-2.9807421-15.5366023-8.5014626-.1747948-.3109356-.1707322-.6914364.0106615-.998569.1813938-.3071326.5126518-.4943905.8693385-.491431h2.37c1.025 0 .806 1.153 3.48 3.24 4.9068545 3.8415871 11.8495828 3.660739 16.549783-.4310981 4.7002002-4.091837 5.8355476-10.9434914 2.7063933-16.3326849-3.1291542-5.3891934-9.6424737-7.7997642-15.5261763-5.746217-1.1122214-1.0784266-2.371353-1.9941586-3.74-2.72 5.9554293-3.17600036 13.2249603-2.5326096 18.53 1.64l7.65-7.65h-4.17c-.5522847 0-1-.44771525-1-1v-2c0-.55228475.4477153-1 1-1h10c.5522847 0 1 .44771525 1 1z"/><path id="Shape" d="m28.73 12.73-3.74-2.72c1.368647.7258414 2.6277786 1.6415734 3.74 2.72z"/></g><path id="Shape" d="m31 24h-12c-.5522847 0-1-.4477153-1-1s.4477153-1 1-1h12c.5522847 0 1 .4477153 1 1s-.4477153 1-1 1z" fill="#f0c419"/><path id="Shape" d="m31 28h-12c-.5522847 0-1-.4477153-1-1s.4477153-1 1-1h12c.5522847 0 1 .4477153 1 1s-.4477153 1-1 1z" fill="#f0c419"/><path id="Shape" d="m30.83 18h-2.36c-.3255292-.006059-.6277285-.1702167-.81-.44-3.8422988-5.5103568-11.2501337-7.1857488-17.0896982-3.8650895-5.83956447 3.3206594-8.18738271 10.5435885-5.41636062 16.6631251 2.7710221 6.1195366 9.74814622 9.1199857 16.09605882 6.9219644 1.1162081 1.0753437 2.3786709 1.9876835 3.75 2.71-1.8624993 1.0037244-3.8984838 1.6450595-6 1.89v7.12h5c.5522847 0 1 .4477153 1 1v2c0 .5522847-.4477153 1-1 1h-5v4c0 .5522847-.4477153 1-1 1h-2c-.5522847 0-1-.4477153-1-1v-4h-5c-.55228475 0-1-.4477153-1-1v-2c0-.5522847.44771525-1 1-1h5v-7.12c-6.78364635-.8017395-12.42781979-5.5874931-14.32789364-12.1487706-1.90007385-6.5612776.3133446-13.6225034 5.61882523-17.9251212 5.30548061-4.30261769 12.67158681-5.01015689 18.69906841-1.7961082 2.793952 1.5045374 5.1191127 3.7501167 6.72 6.49.1739414.3122703.1696856.6932629-.0111878 1.0015698s-.5113656.4979075-.8688122.4984302z" fill="#26b99a"/></g></svg>